# xmcd
#
# Track frame offsets:
#	150
#	12161
#	29229
#	41895
#	53460
#	64119
#	76604
#	86483
#	97268
#	110937
#	119562
#	132242
#
# Disc length: 1940 seconds
#
# Revision: 0
# Processed by: cddbd v1.5.2PL0 Copyright (c) Steve Scherf et al.
# Submitted via: dBpowerAMP V4.0
#
DISCID=a507920c
DTITLE=Neil Diamond - 12 Greatest Hits
DYEAR=1900
DGENRE=
TTITLE0=01 Cherry Cherry
TTITLE1=02 Shilo
TTITLE2=03 The Boat That I Row
TTITLE3=04 Solitary Man
TTITLE4=05 Red Rubber Ball
TTITLE5=06 I'm A Believer
TTITLE6=07 La Bamba
TTITLE7=08 Kentucky Woman
TTITLE8=09 Monday Monday
TTITLE9=10 Do It
TTITLE10=11 Hanky Panky
TTITLE11=12 Thank The Lord For The Nighttime
EXTD=
EXTT0=
EXTT1=
EXTT2=
EXTT3=
EXTT4=
EXTT5=
EXTT6=
EXTT7=
EXTT8=
EXTT9=
EXTT10=
EXTT11=
PLAYORDER=
